<svg xmlns="http://www.w3.org/2000/svg" xmlns:xlink="http://www.w3.org/1999/xlink" xmlns:lucid="lucid" width="3502" height="1600"><g transform="translate(1641 400.99999999999994)" lucid:page-tab-id="0_0"><path d="M-2000-500h4000v2000h-4000z" fill="#fff"/><path d="M-484.67 108h-420.95" stroke="#3a414a" stroke-width="3" fill="none"/><path d="M-444.2 108l-38.97 22.5v-45z" stroke="#3a414a" stroke-width="3" fill="#fff"/><path d="M-905.58 109.47h-1.54v-2.94h1.54z" stroke="#3a414a" stroke-width=".05" fill="#3a414a"/><path d="M-484.67 108H-643.3a6 6 0 0 0-6 6v465a6 6 0 0 1-6 6h-242.2" stroke="#3a414a" stroke-width="3" fill="none"/><path d="M-444.2 108l-38.97 22.5v-45z" stroke="#3a414a" stroke-width="3" fill="#fff"/><path d="M-897.46 586.48H-899v-2.96h1.54z" stroke="#3a414a" stroke-width=".05" fill="#3a414a"/><path d="M684.67 65.73h432.83" stroke="#3a414a" stroke-width="3" fill="none"/><path d="M644.2 65.73l38.97-22.5v45z" stroke="#3a414a" stroke-width="3" fill="#fff"/><path d="M1119 67.2h-1.54v-2.95h1.54z" stroke="#3a414a" stroke-width=".05" fill="#3a414a"/><path d="M684.67 65.73H877.3a6 6 0 0 1 6 6V579a6 6 0 0 0 6 6h236.32" stroke="#3a414a" stroke-width="3" fill="none"/><path d="M644.2 65.73l38.97-22.5v45z" stroke="#3a414a" stroke-width="3" fill="#fff"/><path d="M1127.12 586.48h-1.54v-2.96h1.54z" stroke="#3a414a" stroke-width=".05" fill="#3a414a"/><path d="M1120-49.27a6 6 0 0 1 6-6h719.88a6 6 0 0 1 6 6v230a6 6 0 0 1-6 6H1126a6 6 0 0 1-6-6z" stroke="#3a414a" stroke-width="2" fill="#cfe4ff"/><path d="M1120 9.13h731.88M1120 73.53h731.88" stroke="#3a414a" stroke-width="2" fill="none"/><use xlink:href="#a" transform="matrix(1,0,0,1,1128,-47.27328009629184) translate(297.3359375 39.05078125)"/><use xlink:href="#b" transform="matrix(1,0,0,1,1132,17.125157403708158) translate(0 39.05078125)"/><use xlink:href="#c" transform="matrix(1,0,0,1,1132,17.125157403708158) translate(37.71484375 39.05078125)"/><use xlink:href="#d" transform="matrix(1,0,0,1,1132,81.52359490370816) translate(0 38.8515625)"/><use xlink:href="#e" transform="matrix(1,0,0,1,1132,81.52359490370816) translate(0 87.25)"/><path d="M684.67 65.73H798.1a6 6 0 0 1 6 6V1023a6 6 0 0 0 6 6h307.4" stroke="#3a414a" stroke-width="3" fill="none"/><path d="M644.2 65.73l38.97-22.5v45z" stroke="#3a414a" stroke-width="3" fill="#fff"/><path d="M1119 1030.47h-1.54v-2.94h1.54z" stroke="#3a414a" stroke-width=".05" fill="#3a414a"/><path d="M-484.67 108h-88.93a6 6 0 0 0-6 6v909a6 6 0 0 1-6 6h-320.02" stroke="#3a414a" stroke-width="3" fill="none"/><path d="M-444.2 108l-38.97 22.5v-45z" stroke="#3a414a" stroke-width="3" fill="#fff"/><path d="M-905.58 1030.47h-1.54v-2.94h1.54z" stroke="#3a414a" stroke-width=".05" fill="#3a414a"/><path d="M-440.2-394a6 6 0 0 1 6-6H634.2a6 6 0 0 1 6 6V610a6 6 0 0 1-6 6H-434.2a6 6 0 0 1-6-6z" stroke="#3a414a" stroke-width="2" fill="#cfe4ff"/><path d="M-440.2-335.6H640.2M-440.2 67.6H640.2" stroke="#3a414a" stroke-width="2" fill="none"/><use xlink:href="#f" transform="matrix(1,0,0,1,-432.19801980197997,-391.99999999999994) translate(439.111328125 39.05078125)"/><use xlink:href="#b" transform="matrix(1,0,0,1,-428.19801980197997,-327.60156249999994) translate(0 39.15625)"/><use xlink:href="#g" transform="matrix(1,0,0,1,-428.19801980197997,-327.60156249999994) translate(37.71484375 39.15625)"/><use xlink:href="#h" transform="matrix(1,0,0,1,-428.19801980197997,-327.60156249999994) translate(291.0546875 39.15625)"/><use xlink:href="#i" transform="matrix(1,0,0,1,-428.19801980197997,-327.60156249999994) translate(0 87.5546875)"/><use xlink:href="#j" transform="matrix(1,0,0,1,-428.19801980197997,-327.60156249999994) translate(37.71484375 87.5546875)"/><use xlink:href="#k" transform="matrix(1,0,0,1,-428.19801980197997,-327.60156249999994) translate(164.94140625 87.5546875)"/><use xlink:href="#i" transform="matrix(1,0,0,1,-428.19801980197997,-327.60156249999994) translate(0 135.953125)"/><use xlink:href="#l" transform="matrix(1,0,0,1,-428.19801980197997,-327.60156249999994) translate(37.71484375 135.953125)"/><use xlink:href="#k" transform="matrix(1,0,0,1,-428.19801980197997,-327.60156249999994) translate(144.6484375 135.953125)"/><use xlink:href="#i" transform="matrix(1,0,0,1,-428.19801980197997,-327.60156249999994) translate(0 184.3515625)"/><use xlink:href="#m" transform="matrix(1,0,0,1,-428.19801980197997,-327.60156249999994) translate(37.71484375 184.3515625)"/><use xlink:href="#n" transform="matrix(1,0,0,1,-428.19801980197997,-327.60156249999994) translate(336.97265625 184.3515625)"/><use xlink:href="#i" transform="matrix(1,0,0,1,-428.19801980197997,-327.60156249999994) translate(0 232.75)"/><use xlink:href="#o" transform="matrix(1,0,0,1,-428.19801980197997,-327.60156249999994) translate(37.71484375 232.75)"/><use xlink:href="#n" transform="matrix(1,0,0,1,-428.19801980197997,-327.60156249999994) translate(374.6875 232.75)"/><use xlink:href="#i" transform="matrix(1,0,0,1,-428.19801980197997,-327.60156249999994) translate(0 281.1484375)"/><use xlink:href="#p" transform="matrix(1,0,0,1,-428.19801980197997,-327.60156249999994) translate(37.71484375 281.1484375)"/><use xlink:href="#n" transform="matrix(1,0,0,1,-428.19801980197997,-327.60156249999994) translate(262.734375 281.1484375)"/><use xlink:href="#i" transform="matrix(1,0,0,1,-428.19801980197997,-327.60156249999994) translate(0 329.546875)"/><use xlink:href="#q" transform="matrix(1,0,0,1,-428.19801980197997,-327.60156249999994) translate(37.71484375 329.546875)"/><use xlink:href="#n" transform="matrix(1,0,0,1,-428.19801980197997,-327.60156249999994) translate(177.32421875 329.546875)"/><use xlink:href="#i" transform="matrix(1,0,0,1,-428.19801980197997,-327.60156249999994) translate(0 377.9453125)"/><use xlink:href="#r" transform="matrix(1,0,0,1,-428.19801980197997,-327.60156249999994) translate(37.71484375 377.9453125)"/><use xlink:href="#s" transform="matrix(1,0,0,1,-428.19801980197997,-327.60156249999994) translate(176.19140625 377.9453125)"/><use xlink:href="#i" transform="matrix(1,0,0,1,-428.19801980197997,75.58593750000006) translate(0 39.05859375)"/><use xlink:href="#t" transform="matrix(1,0,0,1,-428.19801980197997,75.58593750000006) translate(37.71484375 39.05859375)"/><use xlink:href="#i" transform="matrix(1,0,0,1,-428.19801980197997,75.58593750000006) translate(0 87.45703125)"/><use xlink:href="#u" transform="matrix(1,0,0,1,-428.19801980197997,75.58593750000006) translate(37.71484375 87.45703125)"/><use xlink:href="#i" transform="matrix(1,0,0,1,-428.19801980197997,75.58593750000006) translate(0 135.85546875)"/><use xlink:href="#v" transform="matrix(1,0,0,1,-428.19801980197997,75.58593750000006) translate(37.71484375 135.85546875)"/><use xlink:href="#i" transform="matrix(1,0,0,1,-428.19801980197997,75.58593750000006) translate(0 184.25390625)"/><use xlink:href="#w" transform="matrix(1,0,0,1,-428.19801980197997,75.58593750000006) translate(37.71484375 184.25390625)"/><use xlink:href="#i" transform="matrix(1,0,0,1,-428.19801980197997,75.58593750000006) translate(0 232.65234375)"/><use xlink:href="#x" transform="matrix(1,0,0,1,-428.19801980197997,75.58593750000006) translate(37.71484375 232.65234375)"/><use xlink:href="#i" transform="matrix(1,0,0,1,-428.19801980197997,75.58593750000006) translate(0 281.05078125)"/><use xlink:href="#y" transform="matrix(1,0,0,1,-428.19801980197997,75.58593750000006) translate(37.71484375 281.05078125)"/><use xlink:href="#i" transform="matrix(1,0,0,1,-428.19801980197997,75.58593750000006) translate(0 329.44921875)"/><use xlink:href="#z" transform="matrix(1,0,0,1,-428.19801980197997,75.58593750000006) translate(37.71484375 329.44921875)"/><use xlink:href="#i" transform="matrix(1,0,0,1,-428.19801980197997,75.58593750000006) translate(0 377.84765625)"/><use xlink:href="#A" transform="matrix(1,0,0,1,-428.19801980197997,75.58593750000006) translate(37.71484375 377.84765625)"/><use xlink:href="#b" transform="matrix(1,0,0,1,-428.19801980197997,75.58593750000006) translate(0 426.24609375)"/><use xlink:href="#B" transform="matrix(1,0,0,1,-428.19801980197997,75.58593750000006) translate(37.71484375 426.24609375)"/><use xlink:href="#b" transform="matrix(1,0,0,1,-428.19801980197997,75.58593750000006) translate(0 474.64453125)"/><use xlink:href="#C" transform="matrix(1,0,0,1,-428.19801980197997,75.58593750000006) translate(37.71484375 474.64453125)"/><use xlink:href="#b" transform="matrix(1,0,0,1,-428.19801980197997,75.58593750000006) translate(0 523.04296875)"/><use xlink:href="#D" transform="matrix(1,0,0,1,-428.19801980197997,75.58593750000006) translate(37.71484375 523.04296875)"/><use xlink:href="#E" transform="matrix(1,0,0,1,-428.19801980197997,75.58593750000006) translate(586.09375 523.04296875)"/><path d="M1128.12 446a6 6 0 0 1 6-6H1854a6 6 0 0 1 6 6v278a6 6 0 0 1-6 6h-719.88a6 6 0 0 1-6-6z" stroke="#3a414a" stroke-width="2" fill="#cfe4ff"/><path d="M1128.12 504.4H1860m-731.88 112.8H1860" stroke="#3a414a" stroke-width="2" fill="none"/><g><use xlink:href="#F" transform="matrix(1,0,0,1,1136.1188118811883,448) translate(324.083984375 39.05078125)"/></g><g><use xlink:href="#b" transform="matrix(1,0,0,1,1140.1188118811883,512.3984375) translate(0 38.8515625)"/><use xlink:href="#G" transform="matrix(1,0,0,1,1140.1188118811883,512.3984375) translate(37.71484375 38.8515625)"/><use xlink:href="#b" transform="matrix(1,0,0,1,1140.1188118811883,512.3984375) translate(0 87.25)"/><use xlink:href="#H" transform="matrix(1,0,0,1,1140.1188118811883,512.3984375) translate(37.71484375 87.25)"/></g><g><use xlink:href="#d" transform="matrix(1,0,0,1,1140.1188118811883,625.1953125) translate(0 38.8515625)"/><use xlink:href="#e" transform="matrix(1,0,0,1,1140.1188118811883,625.1953125) translate(0 87.25)"/></g><path d="M1120 866a6 6 0 0 1 6-6h719.88a6 6 0 0 1 6 6v326a6 6 0 0 1-6 6H1126a6 6 0 0 1-6-6z" stroke="#3a414a" stroke-width="2" fill="#cfe4ff"/><path d="M1120 924.4h731.88M1120 1085.6h731.88" stroke="#3a414a" stroke-width="2" fill="none"/><g><use xlink:href="#I" transform="matrix(1,0,0,1,1128,868) translate(288.732421875 39.05078125)"/></g><g><use xlink:href="#b" transform="matrix(1,0,0,1,1132,932.3984375) translate(0 39.15234375)"/><use xlink:href="#G" transform="matrix(1,0,0,1,1132,932.3984375) translate(37.71484375 39.15234375)"/><use xlink:href="#b" transform="matrix(1,0,0,1,1132,932.3984375) translate(0 87.55078125)"/><use xlink:href="#J" transform="matrix(1,0,0,1,1132,932.3984375) translate(37.71484375 87.55078125)"/><use xlink:href="#b" transform="matrix(1,0,0,1,1132,932.3984375) translate(0 135.94921875)"/><use xlink:href="#K" transform="matrix(1,0,0,1,1132,932.3984375) translate(37.71484375 135.94921875)"/></g><g><use xlink:href="#d" transform="matrix(1,0,0,1,1132,1093.59375) translate(0 38.8515625)"/><use xlink:href="#e" transform="matrix(1,0,0,1,1132,1093.59375) translate(0 87.25)"/></g><path d="M-1640-7a6 6 0 0 1 6-6h719.88a6 6 0 0 1 6 6v230a6 6 0 0 1-6 6H-1634a6 6 0 0 1-6-6z" stroke="#3a414a" stroke-width="2" fill="#cfe4ff"/><path d="M-1640 51.4h731.88M-1640 115.8h731.88" stroke="#3a414a" stroke-width="2" fill="none"/><g><use xlink:href="#L" transform="matrix(1,0,0,1,-1632,-4.999999999999943) translate(304.77734375 39.05078125)"/></g><g><use xlink:href="#b" transform="matrix(1,0,0,1,-1628,59.39843750000006) translate(0 39.05078125)"/><use xlink:href="#c" transform="matrix(1,0,0,1,-1628,59.39843750000006) translate(37.71484375 39.05078125)"/></g><g><use xlink:href="#d" transform="matrix(1,0,0,1,-1628,123.79687500000006) translate(0 38.8515625)"/><use xlink:href="#e" transform="matrix(1,0,0,1,-1628,123.79687500000006) translate(0 87.25)"/></g><path d="M-1631.88 446a6 6 0 0 1 6-6H-906a6 6 0 0 1 6 6v278a6 6 0 0 1-6 6h-719.88a6 6 0 0 1-6-6z" stroke="#3a414a" stroke-width="2" fill="#cfe4ff"/><path d="M-1631.88 504.4H-900m-731.88 112.8H-900" stroke="#3a414a" stroke-width="2" fill="none"/><g><use xlink:href="#M" transform="matrix(1,0,0,1,-1623.8811881188117,448.0000000000001) translate(294.5625 39.05078125)"/></g><g><use xlink:href="#b" transform="matrix(1,0,0,1,-1619.8811881188117,512.3984375000001) translate(0 38.8515625)"/><use xlink:href="#G" transform="matrix(1,0,0,1,-1619.8811881188117,512.3984375000001) translate(37.71484375 38.8515625)"/><use xlink:href="#b" transform="matrix(1,0,0,1,-1619.8811881188117,512.3984375000001) translate(0 87.25)"/><use xlink:href="#H" transform="matrix(1,0,0,1,-1619.8811881188117,512.3984375000001) translate(37.71484375 87.25)"/></g><g><use xlink:href="#d" transform="matrix(1,0,0,1,-1619.8811881188117,625.1953125000001) translate(0 38.8515625)"/><use xlink:href="#e" transform="matrix(1,0,0,1,-1619.8811881188117,625.1953125000001) translate(0 87.25)"/></g><path d="M-1640 866a6 6 0 0 1 6-6h719.88a6 6 0 0 1 6 6v326a6 6 0 0 1-6 6H-1634a6 6 0 0 1-6-6z" stroke="#3a414a" stroke-width="2" fill="#cfe4ff"/><path d="M-1640 924.4h731.88M-1640 1085.6h731.88" stroke="#3a414a" stroke-width="2" fill="none"/><g><use xlink:href="#N" transform="matrix(1,0,0,1,-1632,868) translate(288.029296875 39.05078125)"/></g><g><use xlink:href="#b" transform="matrix(1,0,0,1,-1628,932.3984375) translate(0 39.15234375)"/><use xlink:href="#G" transform="matrix(1,0,0,1,-1628,932.3984375) translate(37.71484375 39.15234375)"/><use xlink:href="#b" transform="matrix(1,0,0,1,-1628,932.3984375) translate(0 87.55078125)"/><use xlink:href="#J" transform="matrix(1,0,0,1,-1628,932.3984375) translate(37.71484375 87.55078125)"/><use xlink:href="#b" transform="matrix(1,0,0,1,-1628,932.3984375) translate(0 135.94921875)"/><use xlink:href="#K" transform="matrix(1,0,0,1,-1628,932.3984375) translate(37.71484375 135.94921875)"/></g><g><use xlink:href="#d" transform="matrix(1,0,0,1,-1628,1093.59375) translate(0 38.8515625)"/><use xlink:href="#e" transform="matrix(1,0,0,1,-1628,1093.59375) translate(0 87.25)"/></g><defs><path d="M789 20c-398 0-667-293-667-764 0-473 273-766 655-766 315 0 558 198 612 487h-196c-61-191-204-311-415-311-262 0-471 207-471 590 0 380 208 588 482 588 249 0 420-165 425-427H828v-166h572v163c0 370-256 606-611 606" id="O"/><path d="M613 24c-304 0-509-231-509-576 0-350 205-580 509-580 305 0 511 230 511 580 0 345-206 576-511 576zm0-161c226 0 329-195 329-415 0-222-103-419-329-419-223 0-326 196-326 419 0 220 103 415 326 415" id="P"/><path d="M677 24c-213 0-288-135-325-197h-20V0H158v-1490h180v551h14c37-59 106-193 324-193 279 0 474 222 474 576 0 356-194 580-473 580zm-27-161c209 0 317-186 317-421 0-232-105-413-317-413-206 0-314 166-314 413 0 249 111 421 314 421" id="Q"/><path d="M338-1490V0H158v-1490h180" id="R"/><path d="M158 0v-1118h180V0H158zm91-1301c-68 0-125-53-125-119s57-119 125-119c69 0 126 53 126 119s-57 119-126 119" id="S"/><path d="M338-670V0H158v-1118h173l1 207c72-158 192-221 342-221 226 0 378 139 378 422V0H872v-695c0-172-96-275-252-275-161 0-282 109-282 300" id="T"/><g id="a"><use transform="matrix(0.01953125,0,0,0.01953125,0,0)" xlink:href="#O"/><use transform="matrix(0.01953125,0,0,0.01953125,29.84375,0)" xlink:href="#P"/><use transform="matrix(0.01953125,0,0,0.01953125,53.828125,0)" xlink:href="#Q"/><use transform="matrix(0.01953125,0,0,0.01953125,78.3203125,0)" xlink:href="#R"/><use transform="matrix(0.01953125,0,0,0.01953125,88.0078125,0)" xlink:href="#S"/><use transform="matrix(0.01953125,0,0,0.01953125,97.6953125,0)" xlink:href="#T"/></g><path d="M593-100v-404H195v-159h398v-403h169v403h398v159H762v404H593" id="U"/><g id="b"><use transform="matrix(0.01953125,0,0,0.01953125,0,0)" xlink:href="#U"/><path d="M-2 8.16h41.7v2.73H-2z"/></g><path d="M471 26C259 26 90-98 90-318c0-256 228-303 435-329 202-27 287-16 287-108 0-139-79-219-234-219-161 0-248 86-283 164l-173-57c86-203 278-265 451-265 150 0 419 46 419 395V0H815v-152h-12C765-73 660 26 471 26zm31-159c199 0 310-134 310-271v-155c-30 35-226 55-295 64-131 17-246 59-246 186 0 116 97 176 231 176" id="V"/><path d="M598-1118v154H368v674c0 100 37 144 132 144 23 0 62-6 92-12L629-6c-37 13-88 20-134 20-193 0-307-107-307-290v-688H20v-154h168v-266h180v266h230" id="W"/><path d="M613 24c-304 0-509-231-509-576 0-350 205-580 509-580 216 0 392 114 453 309l-173 49c-33-115-133-197-280-197-223 0-326 196-326 419 0 220 103 415 326 415 150 0 252-85 285-206l172 49C1010-95 832 24 613 24" id="X"/><path d="M158 0v-1490h180v865h22l478-493h223L593-638 1096 0H865L456-523 338-412V0H158" id="Y"/><path d="M180 0v-1490h528c311 0 458 177 458 395 0 191-114 278-244 313v14c139 9 302 137 302 371 0 225-148 397-499 397H180zm190-168h350c232 0 321-102 321-231 0-149-120-277-311-277H370v508zm0-668h328c160 0 286-101 286-255 0-129-87-231-280-231H370v486" id="Z"/><path d="M537 14c-226 0-379-139-379-422v-710h180v695c0 172 97 275 253 275 160 0 281-109 281-300v-670h181V0H879v-209C806-46 684 14 537 14" id="aa"/><path d="M678-1118v154H420V0H240v-964H20v-154h220v-149c0-194 155-293 318-293 85 0 141 18 168 30l-50 154c-19-6-47-17-97-17-111 0-159 58-159 166v109h258" id="ab"/><g id="c"><use transform="matrix(0.01953125,0,0,0.01953125,0,0)" xlink:href="#V"/><use transform="matrix(0.01953125,0,0,0.01953125,22.4609375,0)" xlink:href="#W"/><use transform="matrix(0.01953125,0,0,0.01953125,34.5703125,0)" xlink:href="#W"/><use transform="matrix(0.01953125,0,0,0.01953125,47.8515625,0)" xlink:href="#V"/><use transform="matrix(0.01953125,0,0,0.01953125,70.3125,0)" xlink:href="#X"/><use transform="matrix(0.01953125,0,0,0.01953125,93.1640625,0)" xlink:href="#Y"/><use transform="matrix(0.01953125,0,0,0.01953125,115.1171875,0)" xlink:href="#Z"/><use transform="matrix(0.01953125,0,0,0.01953125,141.2890625,0)" xlink:href="#aa"/><use transform="matrix(0.01953125,0,0,0.01953125,164.94140625,0)" xlink:href="#ab"/><use transform="matrix(0.01953125,0,0,0.01953125,178.18359375,0)" xlink:href="#ab"/><path d="M-2 8.16h197v2.73H-2z"/></g><path d="M218-607c0-325 108-727 258-974h175c-155 315-250 682-250 974 0 265 78 531 250 886H476C306-10 218-315 218-607" id="ac"/><path d="M96 279C273-86 346-350 346-607c0-292-95-659-250-974h175c150 246 258 650 258 974 0 297-91 602-258 886H96" id="ad"/><g id="d"><use transform="matrix(0.01953125,0,0,0.01953125,0,0)" xlink:href="#Q"/><use transform="matrix(0.01953125,0,0,0.01953125,24.4921875,0)" xlink:href="#aa"/><use transform="matrix(0.01953125,0,0,0.01953125,48.14453125,0)" xlink:href="#ab"/><use transform="matrix(0.01953125,0,0,0.01953125,61.38671875,0)" xlink:href="#ab"/><use transform="matrix(0.01953125,0,0,0.01953125,76.19140625,0)" xlink:href="#ac"/><use transform="matrix(0.01953125,0,0,0.01953125,90.78125,0)" xlink:href="#ad"/><path d="M-2 8.16h109.37v2.73H-2z"/></g><path d="M158 418v-1536h174v179h20c37-59 106-193 324-193 279 0 474 222 474 576 0 356-194 580-473 580-213 0-288-135-325-197h-14v591H158zm492-555c209 0 317-186 317-421 0-232-105-413-317-413-206 0-314 166-314 413 0 249 111 421 314 421" id="ae"/><path d="M158 0v-1118h174v172h12c41-113 157-188 290-188 26 0 70 2 91 3v181c-11-2-60-10-108-10-161 0-279 109-279 260V0H158" id="af"/><path d="M645 0H180v-1490h484c435 0 692 280 692 742 0 466-257 748-711 748zM370-168h263c363 0 539-218 539-580 0-358-176-574-521-574H370v1154" id="ag"/><path d="M628 24c-324 0-524-230-524-574 0-343 198-582 503-582 237 0 487 146 487 559v75H286c9 234 145 362 343 362 132 0 231-58 273-172l174 48C1024-91 857 24 628 24zM287-650h624c-17-190-120-322-304-322-192 0-309 151-320 322" id="ah"/><path d="M538 24C308 24 148-78 108-271l171-41c32 123 123 178 257 178 156 0 256-77 256-169 0-77-54-128-164-154l-186-44c-203-48-300-148-300-305 0-192 176-326 414-326 230 0 351 112 402 269l-163 42c-31-80-94-158-238-158-133 0-233 69-233 162 0 83 57 129 188 160l169 40c203 48 298 149 298 302 0 196-179 339-441 339" id="ai"/><g id="e"><use transform="matrix(0.01953125,0,0,0.01953125,0,0)" xlink:href="#ae"/><use transform="matrix(0.01953125,0,0,0.01953125,24.4921875,0)" xlink:href="#af"/><use transform="matrix(0.01953125,0,0,0.01953125,40.17578125,0)" xlink:href="#S"/><use transform="matrix(0.01953125,0,0,0.01953125,49.86328125,0)" xlink:href="#T"/><use transform="matrix(0.01953125,0,0,0.01953125,73.49609375,0)" xlink:href="#W"/><use transform="matrix(0.01953125,0,0,0.01953125,86.58203125,0)" xlink:href="#ag"/><use transform="matrix(0.01953125,0,0,0.01953125,115.44921875,0)" xlink:href="#ah"/><use transform="matrix(0.01953125,0,0,0.01953125,138.76953125,0)" xlink:href="#ai"/><use transform="matrix(0.01953125,0,0,0.01953125,159.8828125,0)" xlink:href="#X"/><use transform="matrix(0.01953125,0,0,0.01953125,182.734375,0)" xlink:href="#af"/><use transform="matrix(0.01953125,0,0,0.01953125,198.41796875,0)" xlink:href="#S"/><use transform="matrix(0.01953125,0,0,0.01953125,208.10546875,0)" xlink:href="#ae"/><use transform="matrix(0.01953125,0,0,0.01953125,232.59765625,0)" xlink:href="#W"/><use transform="matrix(0.01953125,0,0,0.01953125,245.68359375,0)" xlink:href="#S"/><use transform="matrix(0.01953125,0,0,0.01953125,255.37109375,0)" xlink:href="#P"/><use transform="matrix(0.01953125,0,0,0.01953125,279.35546875,0)" xlink:href="#T"/><path d="M-2 8.16h307v2.73H-2z"/></g><path d="M783 20c-382 0-661-292-661-764 0-473 279-766 661-766 302 0 548 182 601 489h-190c-42-204-217-313-411-313-268 0-476 208-476 590 0 381 209 588 476 588 195 0 369-110 411-313h190c-52 303-296 489-601 489" id="aj"/><path d="M338-670V0H158v-1490h180v566c73-149 190-208 336-208 226 0 379 139 379 422V0H872v-695c0-172-96-275-252-275-161 0-282 109-282 300" id="ak"/><g id="f"><use transform="matrix(0.01953125,0,0,0.01953125,0,0)" xlink:href="#aj"/><use transform="matrix(0.01953125,0,0,0.01953125,29.21875,0)" xlink:href="#ak"/><use transform="matrix(0.01953125,0,0,0.01953125,52.87109375,0)" xlink:href="#V"/><use transform="matrix(0.01953125,0,0,0.01953125,75.33203125,0)" xlink:href="#af"/><use transform="matrix(0.01953125,0,0,0.01953125,90.390625,0)" xlink:href="#V"/><use transform="matrix(0.01953125,0,0,0.01953125,112.8515625,0)" xlink:href="#X"/><use transform="matrix(0.01953125,0,0,0.01953125,135.703125,0)" xlink:href="#W"/><use transform="matrix(0.01953125,0,0,0.01953125,148.3984375,0)" xlink:href="#ah"/><use transform="matrix(0.01953125,0,0,0.01953125,171.71875,0)" xlink:href="#af"/></g><path d="M481 0L54-1118h197c107 314 236 620 325 951 87-331 217-637 324-951h197L670 0H481" id="al"/><path d="M577 24c-279 0-473-224-473-580 0-354 195-576 474-576 218 0 287 134 324 193h14v-551h180V0H922v-173h-20C865-111 790 24 577 24zm27-161c203 0 314-172 314-421 0-247-108-413-314-413-212 0-317 181-317 413 0 235 108 421 317 421" id="am"/><path d="M52 0l541-1490h220L1361 0h-200l-149-416H398L254 0H52zm404-582h497c-103-290-145-390-251-756-108 377-145 460-246 756" id="an"/><path d="M295 13c-75 0-135-60-135-135s60-135 135-135 135 60 135 135S370 13 295 13zm0-809c-75 0-135-60-135-135s60-135 135-135 135 60 135 135-60 135-135 135" id="ao"/><g id="g"><use transform="matrix(0.01953125,0,0,0.01953125,0,0)" xlink:href="#al"/><use transform="matrix(0.01953125,0,0,0.01953125,22.28515625,0)" xlink:href="#V"/><use transform="matrix(0.01953125,0,0,0.01953125,44.74609375,0)" xlink:href="#R"/><use transform="matrix(0.01953125,0,0,0.01953125,54.43359375,0)" xlink:href="#S"/><use transform="matrix(0.01953125,0,0,0.01953125,64.12109375,0)" xlink:href="#am"/><use transform="matrix(0.01953125,0,0,0.01953125,88.61328125,0)" xlink:href="#an"/><use transform="matrix(0.01953125,0,0,0.01953125,116.2109375,0)" xlink:href="#X"/><use transform="matrix(0.01953125,0,0,0.01953125,139.0625,0)" xlink:href="#W"/><use transform="matrix(0.01953125,0,0,0.01953125,152.1484375,0)" xlink:href="#S"/><use transform="matrix(0.01953125,0,0,0.01953125,161.8359375,0)" xlink:href="#P"/><use transform="matrix(0.01953125,0,0,0.01953125,185.8203125,0)" xlink:href="#T"/><use transform="matrix(0.01953125,0,0,0.01953125,209.453125,0)" xlink:href="#ai"/><use transform="matrix(0.01953125,0,0,0.01953125,230.56640625,0)" xlink:href="#ao"/><path d="M-2 8.16h257.34v2.73H-2z"/></g><path d="M226 279v-1860h398v153H398V126h226v153H226" id="ap"/><path d="M657 26c-323 0-524-166-541-416h195c15 169 171 246 346 246 202 0 356-106 356-265 5-203-294-238-475-293-239-73-380-191-380-389 0-252 224-419 512-419 294 0 499 171 508 396H992c-17-145-151-228-328-228-193 0-321 102-321 242 0 156 175 211 284 241l149 41c160 44 422 134 422 412 0 244-197 432-541 432" id="aq"/><path d="M611 442c-248 0-391-105-460-228l146-94c47 65 117 165 314 165 178 0 307-82 307-266v-224h-17C863-141 792-18 576-18c-268 0-472-195-472-546 0-346 197-568 476-568 216 0 288 133 326 193h17v-179h175V29c0 289-215 413-487 413zm-5-620c203 0 314-146 314-390 0-237-108-403-314-403-213 0-319 180-319 403 0 230 109 390 319 390" id="ar"/><path d="M123 279V126h226v-1554H123v-153h398V279H123" id="as"/><g id="h"><use transform="matrix(0.01953125,0,0,0.01953125,0,0)" xlink:href="#ap"/><use transform="matrix(0.01953125,0,0,0.01953125,14.58984375,0)" xlink:href="#aq"/><use transform="matrix(0.01953125,0,0,0.01953125,40.25390625,0)" xlink:href="#W"/><use transform="matrix(0.01953125,0,0,0.01953125,53.33984375,0)" xlink:href="#af"/><use transform="matrix(0.01953125,0,0,0.01953125,69.0234375,0)" xlink:href="#S"/><use transform="matrix(0.01953125,0,0,0.01953125,78.7109375,0)" xlink:href="#T"/><use transform="matrix(0.01953125,0,0,0.01953125,102.34375,0)" xlink:href="#ar"/><use transform="matrix(0.01953125,0,0,0.01953125,126.875,0)" xlink:href="#as"/><path d="M-2 8.16h145.46v2.73H-2z"/></g><use transform="matrix(0.01953125,0,0,0.01953125,0,0)" xlink:href="#U" id="i"/><path d="M158 0v-1118h175l1 205c55-151 181-225 313-225 147 0 245 90 285 228 53-141 190-228 352-228 194 0 352 125 352 384V0h-181v-749c0-161-105-225-225-225-151 0-243 103-243 244V0H807v-767c0-124-93-207-219-207-131 0-250 92-250 270V0H158" id="at"/><g id="j"><use transform="matrix(0.01953125,0,0,0.01953125,0,0)" xlink:href="#T"/><use transform="matrix(0.01953125,0,0,0.01953125,23.6328125,0)" xlink:href="#V"/><use transform="matrix(0.01953125,0,0,0.01953125,46.09375,0)" xlink:href="#at"/><use transform="matrix(0.01953125,0,0,0.01953125,81.1328125,0)" xlink:href="#ah"/><use transform="matrix(0.01953125,0,0,0.01953125,104.453125,0)" xlink:href="#ao"/></g><g id="k"><use transform="matrix(0.01953125,0,0,0.01953125,0,0)" xlink:href="#aq"/><use transform="matrix(0.01953125,0,0,0.01953125,25.6640625,0)" xlink:href="#W"/><use transform="matrix(0.01953125,0,0,0.01953125,38.75,0)" xlink:href="#af"/><use transform="matrix(0.01953125,0,0,0.01953125,54.43359375,0)" xlink:href="#S"/><use transform="matrix(0.01953125,0,0,0.01953125,64.12109375,0)" xlink:href="#T"/><use transform="matrix(0.01953125,0,0,0.01953125,87.75390625,0)" xlink:href="#ar"/></g><path d="M140 405l46-156c120 36 205 19 263-150l32-93L54-1118h197c107 313 237 620 324 950 87-331 219-637 326-950h196L606 167c-68 178-176 259-334 259-64 0-113-12-132-21" id="au"/><g id="l"><use transform="matrix(0.01953125,0,0,0.01953125,0,0)" xlink:href="#W"/><use transform="matrix(0.01953125,0,0,0.01953125,13.8671875,0)" xlink:href="#au"/><use transform="matrix(0.01953125,0,0,0.01953125,36.34765625,0)" xlink:href="#ae"/><use transform="matrix(0.01953125,0,0,0.01953125,60.83984375,0)" xlink:href="#ah"/><use transform="matrix(0.01953125,0,0,0.01953125,84.16015625,0)" xlink:href="#ao"/></g><g id="m"><use transform="matrix(0.01953125,0,0,0.01953125,0,0)" xlink:href="#V"/><use transform="matrix(0.01953125,0,0,0.01953125,22.4609375,0)" xlink:href="#W"/><use transform="matrix(0.01953125,0,0,0.01953125,34.5703125,0)" xlink:href="#W"/><use transform="matrix(0.01953125,0,0,0.01953125,47.8515625,0)" xlink:href="#V"/><use transform="matrix(0.01953125,0,0,0.01953125,70.3125,0)" xlink:href="#X"/><use transform="matrix(0.01953125,0,0,0.01953125,93.1640625,0)" xlink:href="#Y"/><use transform="matrix(0.01953125,0,0,0.01953125,115.1171875,0)" xlink:href="#aq"/><use transform="matrix(0.01953125,0,0,0.01953125,140.78125,0)" xlink:href="#W"/><use transform="matrix(0.01953125,0,0,0.01953125,153.8671875,0)" xlink:href="#af"/><use transform="matrix(0.01953125,0,0,0.01953125,168.26171875,0)" xlink:href="#ah"/><use transform="matrix(0.01953125,0,0,0.01953125,191.58203125,0)" xlink:href="#T"/><use transform="matrix(0.01953125,0,0,0.01953125,215.21484375,0)" xlink:href="#ar"/><use transform="matrix(0.01953125,0,0,0.01953125,239.74609375,0)" xlink:href="#W"/><use transform="matrix(0.01953125,0,0,0.01953125,252.83203125,0)" xlink:href="#ak"/><use transform="matrix(0.01953125,0,0,0.01953125,276.484375,0)" xlink:href="#ao"/></g><path d="M180 0v-1490h224l606 953c40 63 108 177 176 312-27-437-7-821-13-1265h190V0h-226C860-448 622-778 356-1262c27 476 11 792 15 1262H180" id="av"/><g id="n"><use transform="matrix(0.01953125,0,0,0.01953125,0,0)" xlink:href="#av"/><use transform="matrix(0.01953125,0,0,0.01953125,30.13671875,0)" xlink:href="#aa"/><use transform="matrix(0.01953125,0,0,0.01953125,53.7890625,0)" xlink:href="#at"/><use transform="matrix(0.01953125,0,0,0.01953125,88.828125,0)" xlink:href="#Q"/><use transform="matrix(0.01953125,0,0,0.01953125,113.3203125,0)" xlink:href="#ah"/><use transform="matrix(0.01953125,0,0,0.01953125,136.640625,0)" xlink:href="#af"/></g><g id="o"><use transform="matrix(0.01953125,0,0,0.01953125,0,0)" xlink:href="#am"/><use transform="matrix(0.01953125,0,0,0.01953125,24.4921875,0)" xlink:href="#ah"/><use transform="matrix(0.01953125,0,0,0.01953125,47.8125,0)" xlink:href="#ab"/><use transform="matrix(0.01953125,0,0,0.01953125,61.4453125,0)" xlink:href="#ah"/><use transform="matrix(0.01953125,0,0,0.01953125,84.765625,0)" xlink:href="#T"/><use transform="matrix(0.01953125,0,0,0.01953125,108.3984375,0)" xlink:href="#ai"/><use transform="matrix(0.01953125,0,0,0.01953125,129.51171875,0)" xlink:href="#ah"/><use transform="matrix(0.01953125,0,0,0.01953125,152.83203125,0)" xlink:href="#aq"/><use transform="matrix(0.01953125,0,0,0.01953125,178.49609375,0)" xlink:href="#W"/><use transform="matrix(0.01953125,0,0,0.01953125,191.58203125,0)" xlink:href="#af"/><use transform="matrix(0.01953125,0,0,0.01953125,205.9765625,0)" xlink:href="#ah"/><use transform="matrix(0.01953125,0,0,0.01953125,229.296875,0)" xlink:href="#T"/><use transform="matrix(0.01953125,0,0,0.01953125,252.9296875,0)" xlink:href="#ar"/><use transform="matrix(0.01953125,0,0,0.01953125,277.4609375,0)" xlink:href="#W"/><use transform="matrix(0.01953125,0,0,0.01953125,290.546875,0)" xlink:href="#ak"/><use transform="matrix(0.01953125,0,0,0.01953125,314.19921875,0)" xlink:href="#ao"/></g><path d="M65 0l393-574-370-544h210c88 136 192 297 267 435 67-142 176-302 264-435h206L661-564 1053 0H844c-94-144-206-310-287-458C484-308 366-142 273 0H65" id="aw"/><path d="M180 0v-1490h190v644h782v-644h190V0h-190v-678H370V0H180" id="ax"/><g id="p"><use transform="matrix(0.01953125,0,0,0.01953125,0,0)" xlink:href="#at"/><use transform="matrix(0.01953125,0,0,0.01953125,35.0390625,0)" xlink:href="#V"/><use transform="matrix(0.01953125,0,0,0.01953125,57.5,0)" xlink:href="#aw"/><use transform="matrix(0.01953125,0,0,0.01953125,79.3359375,0)" xlink:href="#ax"/><use transform="matrix(0.01953125,0,0,0.01953125,109.0625,0)" xlink:href="#ah"/><use transform="matrix(0.01953125,0,0,0.01953125,132.7734375,0)" xlink:href="#V"/><use transform="matrix(0.01953125,0,0,0.01953125,155.234375,0)" xlink:href="#R"/><use transform="matrix(0.01953125,0,0,0.01953125,165.5078125,0)" xlink:href="#W"/><use transform="matrix(0.01953125,0,0,0.01953125,178.59375,0)" xlink:href="#ak"/><use transform="matrix(0.01953125,0,0,0.01953125,202.24609375,0)" xlink:href="#ao"/></g><g id="q"><use transform="matrix(0.01953125,0,0,0.01953125,0,0)" xlink:href="#ak"/><use transform="matrix(0.01953125,0,0,0.01953125,23.65234375,0)" xlink:href="#ah"/><use transform="matrix(0.01953125,0,0,0.01953125,47.36328125,0)" xlink:href="#V"/><use transform="matrix(0.01953125,0,0,0.01953125,69.82421875,0)" xlink:href="#R"/><use transform="matrix(0.01953125,0,0,0.01953125,80.09765625,0)" xlink:href="#W"/><use transform="matrix(0.01953125,0,0,0.01953125,93.18359375,0)" xlink:href="#ak"/><use transform="matrix(0.01953125,0,0,0.01953125,116.8359375,0)" xlink:href="#ao"/></g><g id="r"><use transform="matrix(0.01953125,0,0,0.01953125,0,0)" xlink:href="#V"/><use transform="matrix(0.01953125,0,0,0.01953125,22.4609375,0)" xlink:href="#X"/><use transform="matrix(0.01953125,0,0,0.01953125,45.3125,0)" xlink:href="#W"/><use transform="matrix(0.01953125,0,0,0.01953125,58.3984375,0)" xlink:href="#S"/><use transform="matrix(0.01953125,0,0,0.01953125,68.0859375,0)" xlink:href="#P"/><use transform="matrix(0.01953125,0,0,0.01953125,92.0703125,0)" xlink:href="#T"/><use transform="matrix(0.01953125,0,0,0.01953125,115.703125,0)" xlink:href="#ao"/></g><g id="s"><use transform="matrix(0.01953125,0,0,0.01953125,0,0)" xlink:href="#aq"/><use transform="matrix(0.01953125,0,0,0.01953125,25.6640625,0)" xlink:href="#W"/><use transform="matrix(0.01953125,0,0,0.01953125,38.75,0)" xlink:href="#af"/><use transform="matrix(0.01953125,0,0,0.01953125,54.43359375,0)" xlink:href="#S"/><use transform="matrix(0.01953125,0,0,0.01953125,64.12109375,0)" xlink:href="#T"/><use transform="matrix(0.01953125,0,0,0.01953125,87.75390625,0)" xlink:href="#ar"/></g><g id="t"><use transform="matrix(0.01953125,0,0,0.01953125,0,0)" xlink:href="#af"/><use transform="matrix(0.01953125,0,0,0.01953125,14.39453125,0)" xlink:href="#ah"/><use transform="matrix(0.01953125,0,0,0.01953125,37.71484375,0)" xlink:href="#ai"/><use transform="matrix(0.01953125,0,0,0.01953125,58.828125,0)" xlink:href="#W"/><use transform="matrix(0.01953125,0,0,0.01953125,71.5234375,0)" xlink:href="#P"/><use transform="matrix(0.01953125,0,0,0.01953125,95.5078125,0)" xlink:href="#af"/><use transform="matrix(0.01953125,0,0,0.01953125,109.90234375,0)" xlink:href="#ah"/><use transform="matrix(0.01953125,0,0,0.01953125,133.22265625,0)" xlink:href="#ax"/><use transform="matrix(0.01953125,0,0,0.01953125,162.94921875,0)" xlink:href="#ah"/><use transform="matrix(0.01953125,0,0,0.01953125,186.66015625,0)" xlink:href="#V"/><use transform="matrix(0.01953125,0,0,0.01953125,209.12109375,0)" xlink:href="#R"/><use transform="matrix(0.01953125,0,0,0.01953125,219.39453125,0)" xlink:href="#W"/><use transform="matrix(0.01953125,0,0,0.01953125,232.48046875,0)" xlink:href="#ak"/><use transform="matrix(0.01953125,0,0,0.01953125,256.1328125,0)" xlink:href="#ac"/><use transform="matrix(0.01953125,0,0,0.01953125,270.72265625,0)" xlink:href="#ad"/></g><g id="u"><use transform="matrix(0.01953125,0,0,0.01953125,0,0)" xlink:href="#af"/><use transform="matrix(0.01953125,0,0,0.01953125,14.39453125,0)" xlink:href="#ah"/><use transform="matrix(0.01953125,0,0,0.01953125,37.71484375,0)" xlink:href="#ai"/><use transform="matrix(0.01953125,0,0,0.01953125,58.828125,0)" xlink:href="#ah"/><use transform="matrix(0.01953125,0,0,0.01953125,82.1484375,0)" xlink:href="#W"/><use transform="matrix(0.01953125,0,0,0.01953125,95.234375,0)" xlink:href="#an"/><use transform="matrix(0.01953125,0,0,0.01953125,122.83203125,0)" xlink:href="#X"/><use transform="matrix(0.01953125,0,0,0.01953125,145.68359375,0)" xlink:href="#W"/><use transform="matrix(0.01953125,0,0,0.01953125,158.76953125,0)" xlink:href="#S"/><use transform="matrix(0.01953125,0,0,0.01953125,168.45703125,0)" xlink:href="#P"/><use transform="matrix(0.01953125,0,0,0.01953125,192.44140625,0)" xlink:href="#T"/><use transform="matrix(0.01953125,0,0,0.01953125,216.07421875,0)" xlink:href="#ac"/><use transform="matrix(0.01953125,0,0,0.01953125,230.6640625,0)" xlink:href="#ad"/></g><g id="v"><use transform="matrix(0.01953125,0,0,0.01953125,0,0)" xlink:href="#ai"/><use transform="matrix(0.01953125,0,0,0.01953125,21.11328125,0)" xlink:href="#ah"/><use transform="matrix(0.01953125,0,0,0.01953125,44.43359375,0)" xlink:href="#W"/><use transform="matrix(0.01953125,0,0,0.01953125,57.51953125,0)" xlink:href="#an"/><use transform="matrix(0.01953125,0,0,0.01953125,85.1171875,0)" xlink:href="#X"/><use transform="matrix(0.01953125,0,0,0.01953125,107.96875,0)" xlink:href="#W"/><use transform="matrix(0.01953125,0,0,0.01953125,121.0546875,0)" xlink:href="#S"/><use transform="matrix(0.01953125,0,0,0.01953125,130.7421875,0)" xlink:href="#P"/><use transform="matrix(0.01953125,0,0,0.01953125,154.7265625,0)" xlink:href="#T"/><use transform="matrix(0.01953125,0,0,0.01953125,178.359375,0)" xlink:href="#ac"/><use transform="matrix(0.01953125,0,0,0.01953125,192.94921875,0)" xlink:href="#aq"/><use transform="matrix(0.01953125,0,0,0.01953125,218.61328125,0)" xlink:href="#W"/><use transform="matrix(0.01953125,0,0,0.01953125,231.69921875,0)" xlink:href="#af"/><use transform="matrix(0.01953125,0,0,0.01953125,247.3828125,0)" xlink:href="#S"/><use transform="matrix(0.01953125,0,0,0.01953125,257.0703125,0)" xlink:href="#T"/><use transform="matrix(0.01953125,0,0,0.01953125,280.703125,0)" xlink:href="#ar"/><use transform="matrix(0.01953125,0,0,0.01953125,305.234375,0)" xlink:href="#ad"/></g><g id="w"><use transform="matrix(0.01953125,0,0,0.01953125,0,0)" xlink:href="#V"/><use transform="matrix(0.01953125,0,0,0.01953125,22.4609375,0)" xlink:href="#W"/><use transform="matrix(0.01953125,0,0,0.01953125,34.5703125,0)" xlink:href="#W"/><use transform="matrix(0.01953125,0,0,0.01953125,47.8515625,0)" xlink:href="#V"/><use transform="matrix(0.01953125,0,0,0.01953125,70.3125,0)" xlink:href="#X"/><use transform="matrix(0.01953125,0,0,0.01953125,93.1640625,0)" xlink:href="#Y"/><use transform="matrix(0.01953125,0,0,0.01953125,115.1171875,0)" xlink:href="#ac"/><use transform="matrix(0.01953125,0,0,0.01953125,129.70703125,0)" xlink:href="#aj"/><use transform="matrix(0.01953125,0,0,0.01953125,158.92578125,0)" xlink:href="#ak"/><use transform="matrix(0.01953125,0,0,0.01953125,182.578125,0)" xlink:href="#V"/><use transform="matrix(0.01953125,0,0,0.01953125,205.0390625,0)" xlink:href="#af"/><use transform="matrix(0.01953125,0,0,0.01953125,220.09765625,0)" xlink:href="#V"/><use transform="matrix(0.01953125,0,0,0.01953125,242.55859375,0)" xlink:href="#X"/><use transform="matrix(0.01953125,0,0,0.01953125,265.41015625,0)" xlink:href="#W"/><use transform="matrix(0.01953125,0,0,0.01953125,278.10546875,0)" xlink:href="#ah"/><use transform="matrix(0.01953125,0,0,0.01953125,301.42578125,0)" xlink:href="#af"/><use transform="matrix(0.01953125,0,0,0.01953125,316.484375,0)" xlink:href="#ad"/></g><g id="x"><use transform="matrix(0.01953125,0,0,0.01953125,0,0)" xlink:href="#am"/><use transform="matrix(0.01953125,0,0,0.01953125,24.4921875,0)" xlink:href="#ah"/><use transform="matrix(0.01953125,0,0,0.01953125,47.8125,0)" xlink:href="#ab"/><use transform="matrix(0.01953125,0,0,0.01953125,61.4453125,0)" xlink:href="#ah"/><use transform="matrix(0.01953125,0,0,0.01953125,84.765625,0)" xlink:href="#T"/><use transform="matrix(0.01953125,0,0,0.01953125,108.3984375,0)" xlink:href="#am"/><use transform="matrix(0.01953125,0,0,0.01953125,132.890625,0)" xlink:href="#ac"/><use transform="matrix(0.01953125,0,0,0.01953125,147.48046875,0)" xlink:href="#aj"/><use transform="matrix(0.01953125,0,0,0.01953125,176.69921875,0)" xlink:href="#ak"/><use transform="matrix(0.01953125,0,0,0.01953125,200.3515625,0)" xlink:href="#V"/><use transform="matrix(0.01953125,0,0,0.01953125,222.8125,0)" xlink:href="#af"/><use transform="matrix(0.01953125,0,0,0.01953125,237.87109375,0)" xlink:href="#V"/><use transform="matrix(0.01953125,0,0,0.01953125,260.33203125,0)" xlink:href="#X"/><use transform="matrix(0.01953125,0,0,0.01953125,283.18359375,0)" xlink:href="#W"/><use transform="matrix(0.01953125,0,0,0.01953125,295.87890625,0)" xlink:href="#ah"/><use transform="matrix(0.01953125,0,0,0.01953125,319.19921875,0)" xlink:href="#af"/><use transform="matrix(0.01953125,0,0,0.01953125,334.2578125,0)" xlink:href="#ad"/></g><g id="y"><use transform="matrix(0.01953125,0,0,0.01953125,0,0)" xlink:href="#Q"/><use transform="matrix(0.01953125,0,0,0.01953125,24.4921875,0)" xlink:href="#aa"/><use transform="matrix(0.01953125,0,0,0.01953125,48.14453125,0)" xlink:href="#ab"/><use transform="matrix(0.01953125,0,0,0.01953125,61.38671875,0)" xlink:href="#ab"/><use transform="matrix(0.01953125,0,0,0.01953125,76.19140625,0)" xlink:href="#ac"/><use transform="matrix(0.01953125,0,0,0.01953125,90.78125,0)" xlink:href="#ad"/></g><g id="z"><use transform="matrix(0.01953125,0,0,0.01953125,0,0)" xlink:href="#ae"/><use transform="matrix(0.01953125,0,0,0.01953125,24.4921875,0)" xlink:href="#af"/><use transform="matrix(0.01953125,0,0,0.01953125,40.17578125,0)" xlink:href="#S"/><use transform="matrix(0.01953125,0,0,0.01953125,49.86328125,0)" xlink:href="#T"/><use transform="matrix(0.01953125,0,0,0.01953125,73.49609375,0)" xlink:href="#W"/><use transform="matrix(0.01953125,0,0,0.01953125,86.58203125,0)" xlink:href="#aq"/><use transform="matrix(0.01953125,0,0,0.01953125,112.24609375,0)" xlink:href="#W"/><use transform="matrix(0.01953125,0,0,0.01953125,125.52734375,0)" xlink:href="#V"/><use transform="matrix(0.01953125,0,0,0.01953125,147.98828125,0)" xlink:href="#W"/><use transform="matrix(0.01953125,0,0,0.01953125,161.07421875,0)" xlink:href="#aa"/><use transform="matrix(0.01953125,0,0,0.01953125,184.7265625,0)" xlink:href="#ai"/><use transform="matrix(0.01953125,0,0,0.01953125,205.83984375,0)" xlink:href="#ac"/><use transform="matrix(0.01953125,0,0,0.01953125,220.4296875,0)" xlink:href="#ad"/></g><g id="A"><use transform="matrix(0.01953125,0,0,0.01953125,0,0)" xlink:href="#ae"/><use transform="matrix(0.01953125,0,0,0.01953125,24.4921875,0)" xlink:href="#af"/><use transform="matrix(0.01953125,0,0,0.01953125,40.17578125,0)" xlink:href="#S"/><use transform="matrix(0.01953125,0,0,0.01953125,49.86328125,0)" xlink:href="#T"/><use transform="matrix(0.01953125,0,0,0.01953125,73.49609375,0)" xlink:href="#W"/><use transform="matrix(0.01953125,0,0,0.01953125,86.58203125,0)" xlink:href="#ag"/><use transform="matrix(0.01953125,0,0,0.01953125,115.44921875,0)" xlink:href="#ah"/><use transform="matrix(0.01953125,0,0,0.01953125,138.76953125,0)" xlink:href="#ai"/><use transform="matrix(0.01953125,0,0,0.01953125,159.8828125,0)" xlink:href="#X"/><use transform="matrix(0.01953125,0,0,0.01953125,182.734375,0)" xlink:href="#af"/><use transform="matrix(0.01953125,0,0,0.01953125,198.41796875,0)" xlink:href="#S"/><use transform="matrix(0.01953125,0,0,0.01953125,208.10546875,0)" xlink:href="#ae"/><use transform="matrix(0.01953125,0,0,0.01953125,232.59765625,0)" xlink:href="#W"/><use transform="matrix(0.01953125,0,0,0.01953125,245.68359375,0)" xlink:href="#S"/><use transform="matrix(0.01953125,0,0,0.01953125,255.37109375,0)" xlink:href="#P"/><use transform="matrix(0.01953125,0,0,0.01953125,279.35546875,0)" xlink:href="#T"/><use transform="matrix(0.01953125,0,0,0.01953125,302.98828125,0)" xlink:href="#ac"/><use transform="matrix(0.01953125,0,0,0.01953125,317.578125,0)" xlink:href="#ad"/></g><path d="M600 0L52-1490h200c166 485 304 806 458 1336 156-533 285-846 449-1336h202L819 0H600" id="ay"/><g id="B"><use transform="matrix(0.01953125,0,0,0.01953125,0,0)" xlink:href="#S"/><use transform="matrix(0.01953125,0,0,0.01953125,9.6875,0)" xlink:href="#ai"/><use transform="matrix(0.01953125,0,0,0.01953125,28.984375,0)" xlink:href="#ay"/><use transform="matrix(0.01953125,0,0,0.01953125,54.55078125,0)" xlink:href="#V"/><use transform="matrix(0.01953125,0,0,0.01953125,77.01171875,0)" xlink:href="#R"/><use transform="matrix(0.01953125,0,0,0.01953125,86.69921875,0)" xlink:href="#S"/><use transform="matrix(0.01953125,0,0,0.01953125,96.38671875,0)" xlink:href="#am"/><use transform="matrix(0.01953125,0,0,0.01953125,120.87890625,0)" xlink:href="#an"/><use transform="matrix(0.01953125,0,0,0.01953125,148.4765625,0)" xlink:href="#X"/><use transform="matrix(0.01953125,0,0,0.01953125,171.328125,0)" xlink:href="#W"/><use transform="matrix(0.01953125,0,0,0.01953125,184.4140625,0)" xlink:href="#S"/><use transform="matrix(0.01953125,0,0,0.01953125,194.1015625,0)" xlink:href="#P"/><use transform="matrix(0.01953125,0,0,0.01953125,218.0859375,0)" xlink:href="#T"/><use transform="matrix(0.01953125,0,0,0.01953125,241.71875,0)" xlink:href="#ac"/><use transform="matrix(0.01953125,0,0,0.01953125,256.30859375,0)" xlink:href="#aq"/><use transform="matrix(0.01953125,0,0,0.01953125,281.97265625,0)" xlink:href="#W"/><use transform="matrix(0.01953125,0,0,0.01953125,295.05859375,0)" xlink:href="#af"/><use transform="matrix(0.01953125,0,0,0.01953125,310.7421875,0)" xlink:href="#S"/><use transform="matrix(0.01953125,0,0,0.01953125,320.4296875,0)" xlink:href="#T"/><use transform="matrix(0.01953125,0,0,0.01953125,344.0625,0)" xlink:href="#ar"/><use transform="matrix(0.01953125,0,0,0.01953125,368.59375,0)" xlink:href="#ad"/><path d="M-2 8.16h387.18v2.73H-2z"/></g><path d="M180 0v-1490h510c348 0 508 194 508 460 0 198-88 351-276 417L1256 0h-220L726-579c-117 2-238 0-356 1V0H180zm190-747h312c235 0 327-108 327-283 0-177-92-293-329-293H370v576" id="az"/><g id="C"><use transform="matrix(0.01953125,0,0,0.01953125,0,0)" xlink:href="#ar"/><use transform="matrix(0.01953125,0,0,0.01953125,24.53125,0)" xlink:href="#ah"/><use transform="matrix(0.01953125,0,0,0.01953125,47.8515625,0)" xlink:href="#W"/><use transform="matrix(0.01953125,0,0,0.01953125,60.9375,0)" xlink:href="#az"/><use transform="matrix(0.01953125,0,0,0.01953125,86.484375,0)" xlink:href="#V"/><use transform="matrix(0.01953125,0,0,0.01953125,108.9453125,0)" xlink:href="#T"/><use transform="matrix(0.01953125,0,0,0.01953125,132.578125,0)" xlink:href="#am"/><use transform="matrix(0.01953125,0,0,0.01953125,157.0703125,0)" xlink:href="#P"/><use transform="matrix(0.01953125,0,0,0.01953125,181.0546875,0)" xlink:href="#at"/><use transform="matrix(0.01953125,0,0,0.01953125,216.09375,0)" xlink:href="#an"/><use transform="matrix(0.01953125,0,0,0.01953125,243.69140625,0)" xlink:href="#X"/><use transform="matrix(0.01953125,0,0,0.01953125,266.54296875,0)" xlink:href="#W"/><use transform="matrix(0.01953125,0,0,0.01953125,279.62890625,0)" xlink:href="#S"/><use transform="matrix(0.01953125,0,0,0.01953125,289.31640625,0)" xlink:href="#P"/><use transform="matrix(0.01953125,0,0,0.01953125,313.30078125,0)" xlink:href="#T"/><use transform="matrix(0.01953125,0,0,0.01953125,336.93359375,0)" xlink:href="#ac"/><use transform="matrix(0.01953125,0,0,0.01953125,351.5234375,0)" xlink:href="#ad"/><path d="M-2 8.16h370.1v2.73H-2z"/></g><path d="M128 359l88-567h206L266 359H128" id="aA"/><g id="D"><use transform="matrix(0.01953125,0,0,0.01953125,0,0)" xlink:href="#X"/><use transform="matrix(0.01953125,0,0,0.01953125,23.2421875,0)" xlink:href="#V"/><use transform="matrix(0.01953125,0,0,0.01953125,45.703125,0)" xlink:href="#R"/><use transform="matrix(0.01953125,0,0,0.01953125,55.390625,0)" xlink:href="#X"/><use transform="matrix(0.01953125,0,0,0.01953125,78.2421875,0)" xlink:href="#aa"/><use transform="matrix(0.01953125,0,0,0.01953125,101.89453125,0)" xlink:href="#R"/><use transform="matrix(0.01953125,0,0,0.01953125,111.58203125,0)" xlink:href="#V"/><use transform="matrix(0.01953125,0,0,0.01953125,134.04296875,0)" xlink:href="#W"/><use transform="matrix(0.01953125,0,0,0.01953125,146.73828125,0)" xlink:href="#ah"/><use transform="matrix(0.01953125,0,0,0.01953125,170.05859375,0)" xlink:href="#ag"/><use transform="matrix(0.01953125,0,0,0.01953125,198.92578125,0)" xlink:href="#V"/><use transform="matrix(0.01953125,0,0,0.01953125,221.38671875,0)" xlink:href="#at"/><use transform="matrix(0.01953125,0,0,0.01953125,256.42578125,0)" xlink:href="#V"/><use transform="matrix(0.01953125,0,0,0.01953125,278.88671875,0)" xlink:href="#ar"/><use transform="matrix(0.01953125,0,0,0.01953125,303.41796875,0)" xlink:href="#ah"/><use transform="matrix(0.01953125,0,0,0.01953125,326.73828125,0)" xlink:href="#ac"/><use transform="matrix(0.01953125,0,0,0.01953125,341.328125,0)" xlink:href="#aj"/><use transform="matrix(0.01953125,0,0,0.01953125,370.546875,0)" xlink:href="#ak"/><use transform="matrix(0.01953125,0,0,0.01953125,394.19921875,0)" xlink:href="#V"/><use transform="matrix(0.01953125,0,0,0.01953125,416.66015625,0)" xlink:href="#af"/><use transform="matrix(0.01953125,0,0,0.01953125,431.71875,0)" xlink:href="#V"/><use transform="matrix(0.01953125,0,0,0.01953125,454.1796875,0)" xlink:href="#X"/><use transform="matrix(0.01953125,0,0,0.01953125,477.03125,0)" xlink:href="#W"/><use transform="matrix(0.01953125,0,0,0.01953125,489.7265625,0)" xlink:href="#ah"/><use transform="matrix(0.01953125,0,0,0.01953125,513.046875,0)" xlink:href="#af"/><use transform="matrix(0.01953125,0,0,0.01953125,525.60546875,0)" xlink:href="#aA"/><path d="M-2 8.16h552.38v2.73H-2z"/></g><g id="E"><use transform="matrix(0.01953125,0,0,0.01953125,0,0)" xlink:href="#aj"/><use transform="matrix(0.01953125,0,0,0.01953125,29.21875,0)" xlink:href="#ak"/><use transform="matrix(0.01953125,0,0,0.01953125,52.87109375,0)" xlink:href="#V"/><use transform="matrix(0.01953125,0,0,0.01953125,75.33203125,0)" xlink:href="#af"/><use transform="matrix(0.01953125,0,0,0.01953125,90.390625,0)" xlink:href="#V"/><use transform="matrix(0.01953125,0,0,0.01953125,112.8515625,0)" xlink:href="#X"/><use transform="matrix(0.01953125,0,0,0.01953125,135.703125,0)" xlink:href="#W"/><use transform="matrix(0.01953125,0,0,0.01953125,148.3984375,0)" xlink:href="#ah"/><use transform="matrix(0.01953125,0,0,0.01953125,171.71875,0)" xlink:href="#af"/><use transform="matrix(0.01953125,0,0,0.01953125,186.77734375,0)" xlink:href="#ad"/><path d="M-2 8.16h205.37v2.73H-2z"/></g><path d="M784 20c-382 0-662-292-662-764 0-473 280-766 662-766s660 293 660 766c0 472-278 764-660 764zm0-176c266 0 475-207 475-588 0-383-209-590-475-590-268 0-477 208-477 590 0 380 209 588 477 588" id="aB"/><g id="F"><use transform="matrix(0.01953125,0,0,0.01953125,0,0)" xlink:href="#aB"/><use transform="matrix(0.01953125,0,0,0.01953125,30.5859375,0)" xlink:href="#af"/><use transform="matrix(0.01953125,0,0,0.01953125,44.98046875,0)" xlink:href="#X"/></g><g id="G"><use transform="matrix(0.01953125,0,0,0.01953125,0,0)" xlink:href="#V"/><use transform="matrix(0.01953125,0,0,0.01953125,22.4609375,0)" xlink:href="#W"/><use transform="matrix(0.01953125,0,0,0.01953125,34.5703125,0)" xlink:href="#W"/><use transform="matrix(0.01953125,0,0,0.01953125,47.8515625,0)" xlink:href="#V"/><use transform="matrix(0.01953125,0,0,0.01953125,70.3125,0)" xlink:href="#X"/><use transform="matrix(0.01953125,0,0,0.01953125,93.1640625,0)" xlink:href="#Y"/><use transform="matrix(0.01953125,0,0,0.01953125,115.1171875,0)" xlink:href="#Z"/><use transform="matrix(0.01953125,0,0,0.01953125,141.2890625,0)" xlink:href="#aa"/><use transform="matrix(0.01953125,0,0,0.01953125,164.94140625,0)" xlink:href="#ab"/><use transform="matrix(0.01953125,0,0,0.01953125,178.18359375,0)" xlink:href="#ab"/><path d="M-2 8.16h197v2.73H-2z"/></g><g id="H"><use transform="matrix(0.01953125,0,0,0.01953125,0,0)" xlink:href="#am"/><use transform="matrix(0.01953125,0,0,0.01953125,24.4921875,0)" xlink:href="#ah"/><use transform="matrix(0.01953125,0,0,0.01953125,47.8125,0)" xlink:href="#ab"/><use transform="matrix(0.01953125,0,0,0.01953125,61.4453125,0)" xlink:href="#ah"/><use transform="matrix(0.01953125,0,0,0.01953125,84.765625,0)" xlink:href="#T"/><use transform="matrix(0.01953125,0,0,0.01953125,108.3984375,0)" xlink:href="#ai"/><use transform="matrix(0.01953125,0,0,0.01953125,129.51171875,0)" xlink:href="#ah"/><use transform="matrix(0.01953125,0,0,0.01953125,152.83203125,0)" xlink:href="#Z"/><use transform="matrix(0.01953125,0,0,0.01953125,179.00390625,0)" xlink:href="#aa"/><use transform="matrix(0.01953125,0,0,0.01953125,202.65625,0)" xlink:href="#ab"/><use transform="matrix(0.01953125,0,0,0.01953125,215.8984375,0)" xlink:href="#ab"/><path d="M-2 8.16h234.7v2.73H-2z"/></g><g id="I"><use transform="matrix(0.01953125,0,0,0.01953125,0,0)" xlink:href="#ag"/><use transform="matrix(0.01953125,0,0,0.01953125,28.8671875,0)" xlink:href="#af"/><use transform="matrix(0.01953125,0,0,0.01953125,43.92578125,0)" xlink:href="#V"/><use transform="matrix(0.01953125,0,0,0.01953125,66.38671875,0)" xlink:href="#ar"/><use transform="matrix(0.01953125,0,0,0.01953125,90.91796875,0)" xlink:href="#P"/><use transform="matrix(0.01953125,0,0,0.01953125,114.90234375,0)" xlink:href="#T"/></g><g id="J"><use transform="matrix(0.01953125,0,0,0.01953125,0,0)" xlink:href="#am"/><use transform="matrix(0.01953125,0,0,0.01953125,24.4921875,0)" xlink:href="#ah"/><use transform="matrix(0.01953125,0,0,0.01953125,47.8125,0)" xlink:href="#ab"/><use transform="matrix(0.01953125,0,0,0.01953125,61.4453125,0)" xlink:href="#ah"/><use transform="matrix(0.01953125,0,0,0.01953125,84.765625,0)" xlink:href="#T"/><use transform="matrix(0.01953125,0,0,0.01953125,108.3984375,0)" xlink:href="#ai"/><use transform="matrix(0.01953125,0,0,0.01953125,129.51171875,0)" xlink:href="#ah"/><use transform="matrix(0.01953125,0,0,0.01953125,152.83203125,0)" xlink:href="#Z"/><use transform="matrix(0.01953125,0,0,0.01953125,179.00390625,0)" xlink:href="#aa"/><use transform="matrix(0.01953125,0,0,0.01953125,202.65625,0)" xlink:href="#ab"/><use transform="matrix(0.01953125,0,0,0.01953125,215.8984375,0)" xlink:href="#ab"/><path d="M-2 8.16h234.7v2.73H-2z"/></g><g id="K"><use transform="matrix(0.01953125,0,0,0.01953125,0,0)" xlink:href="#ak"/><use transform="matrix(0.01953125,0,0,0.01953125,23.65234375,0)" xlink:href="#ah"/><use transform="matrix(0.01953125,0,0,0.01953125,47.36328125,0)" xlink:href="#V"/><use transform="matrix(0.01953125,0,0,0.01953125,69.82421875,0)" xlink:href="#R"/><use transform="matrix(0.01953125,0,0,0.01953125,80.09765625,0)" xlink:href="#W"/><use transform="matrix(0.01953125,0,0,0.01953125,93.18359375,0)" xlink:href="#ak"/><use transform="matrix(0.01953125,0,0,0.01953125,116.8359375,0)" xlink:href="#Z"/><use transform="matrix(0.01953125,0,0,0.01953125,143.0078125,0)" xlink:href="#aa"/><use transform="matrix(0.01953125,0,0,0.01953125,166.66015625,0)" xlink:href="#ab"/><use transform="matrix(0.01953125,0,0,0.01953125,179.90234375,0)" xlink:href="#ab"/><path d="M-2 8.16h198.7v2.73H-2z"/></g><path d="M180 0v-1490h270l367 940c28 72 75 218 110 339 35-117 81-264 110-339l362-940h271V0h-187c2-448-5-837 7-1287-157 497-311 829-483 1287H842C666-458 514-784 354-1284c12 438 5 843 7 1284H180" id="aC"/><g id="L"><use transform="matrix(0.01953125,0,0,0.01953125,0,0)" xlink:href="#aC"/><use transform="matrix(0.01953125,0,0,0.01953125,36.1328125,0)" xlink:href="#V"/><use transform="matrix(0.01953125,0,0,0.01953125,58.59375,0)" xlink:href="#ar"/><use transform="matrix(0.01953125,0,0,0.01953125,83.125,0)" xlink:href="#ah"/></g><g id="M"><use transform="matrix(0.01953125,0,0,0.01953125,0,0)" xlink:href="#an"/><use transform="matrix(0.01953125,0,0,0.01953125,27.59765625,0)" xlink:href="#af"/><use transform="matrix(0.01953125,0,0,0.01953125,41.9921875,0)" xlink:href="#X"/><use transform="matrix(0.01953125,0,0,0.01953125,64.84375,0)" xlink:href="#ak"/><use transform="matrix(0.01953125,0,0,0.01953125,88.49609375,0)" xlink:href="#ah"/><use transform="matrix(0.01953125,0,0,0.01953125,111.81640625,0)" xlink:href="#af"/></g><path d="M458 0L52-1490h194c108 439 233 855 324 1313 92-459 221-873 331-1313h216c110 438 234 854 330 1307 92-455 216-869 323-1307h196L1558 0h-221l-256-944c-26-95-50-200-73-331-22 122-44 223-73 331L680 0H458" id="aD"/><g id="N"><use transform="matrix(0.01953125,0,0,0.01953125,0,0)" xlink:href="#aD"/><use transform="matrix(0.01953125,0,0,0.01953125,37.3828125,0)" xlink:href="#V"/><use transform="matrix(0.01953125,0,0,0.01953125,59.84375,0)" xlink:href="#af"/><use transform="matrix(0.01953125,0,0,0.01953125,75.52734375,0)" xlink:href="#af"/><use transform="matrix(0.01953125,0,0,0.01953125,91.2109375,0)" xlink:href="#S"/><use transform="matrix(0.01953125,0,0,0.01953125,100.8984375,0)" xlink:href="#P"/><use transform="matrix(0.01953125,0,0,0.01953125,124.8828125,0)" xlink:href="#af"/></g></defs></g></svg>